<mxfile host="app.diagrams.net" modified="2023-10-01T18:16:38.468Z" agent="Mozilla/5.0 (Windows NT 10.0; Win64; x64) AppleWebKit/537.36 (KHTML, like Gecko) Chrome/117.0.0.0 Safari/537.36" etag="j8zCrD8jb-YVBOvQprwp" version="21.8.0" type="device">
  <diagram name="Page-1" id="Bf-v-FmlA90WFqcul3PK">
    <mxGraphModel dx="1050" dy="630" grid="1" gridSize="10" guides="1" tooltips="1" connect="1" arrows="1" fold="1" page="1" pageScale="1" pageWidth="850" pageHeight="1100" math="0" shadow="0">
      <root>
        <mxCell id="0" />
        <mxCell id="1" parent="0" />
        <mxCell id="yYjo69xQFSQegKboXp3B-3" value="" style="edgeStyle=orthogonalEdgeStyle;rounded=0;orthogonalLoop=1;jettySize=auto;html=1;" edge="1" parent="1" source="yYjo69xQFSQegKboXp3B-1" target="yYjo69xQFSQegKboXp3B-2">
          <mxGeometry relative="1" as="geometry" />
        </mxCell>
        <mxCell id="yYjo69xQFSQegKboXp3B-1" value="Input:&lt;br&gt;Mesh - BCs" style="rounded=1;whiteSpace=wrap;html=1;" vertex="1" parent="1">
          <mxGeometry x="40" y="120" width="80" height="40" as="geometry" />
        </mxCell>
        <mxCell id="yYjo69xQFSQegKboXp3B-5" value="" style="edgeStyle=orthogonalEdgeStyle;rounded=0;orthogonalLoop=1;jettySize=auto;html=1;" edge="1" parent="1" source="yYjo69xQFSQegKboXp3B-2" target="yYjo69xQFSQegKboXp3B-4">
          <mxGeometry relative="1" as="geometry" />
        </mxCell>
        <mxCell id="yYjo69xQFSQegKboXp3B-2" value="Perform FEA" style="whiteSpace=wrap;html=1;rounded=1;" vertex="1" parent="1">
          <mxGeometry x="160" y="120" width="80" height="40" as="geometry" />
        </mxCell>
        <mxCell id="yYjo69xQFSQegKboXp3B-7" value="" style="edgeStyle=orthogonalEdgeStyle;rounded=0;orthogonalLoop=1;jettySize=auto;html=1;" edge="1" parent="1" source="yYjo69xQFSQegKboXp3B-4" target="yYjo69xQFSQegKboXp3B-6">
          <mxGeometry relative="1" as="geometry" />
        </mxCell>
        <mxCell id="yYjo69xQFSQegKboXp3B-4" value="Sensitivity Analysis" style="whiteSpace=wrap;html=1;rounded=1;" vertex="1" parent="1">
          <mxGeometry x="280" y="120" width="80" height="40" as="geometry" />
        </mxCell>
        <mxCell id="yYjo69xQFSQegKboXp3B-11" value="" style="edgeStyle=orthogonalEdgeStyle;rounded=0;orthogonalLoop=1;jettySize=auto;html=1;" edge="1" parent="1" source="yYjo69xQFSQegKboXp3B-6" target="yYjo69xQFSQegKboXp3B-10">
          <mxGeometry relative="1" as="geometry" />
        </mxCell>
        <mxCell id="yYjo69xQFSQegKboXp3B-6" value="Update Density" style="whiteSpace=wrap;html=1;rounded=1;" vertex="1" parent="1">
          <mxGeometry x="400" y="120" width="80" height="40" as="geometry" />
        </mxCell>
        <mxCell id="yYjo69xQFSQegKboXp3B-14" style="edgeStyle=orthogonalEdgeStyle;rounded=0;orthogonalLoop=1;jettySize=auto;html=1;entryX=1;entryY=0.5;entryDx=0;entryDy=0;" edge="1" parent="1" source="yYjo69xQFSQegKboXp3B-10" target="yYjo69xQFSQegKboXp3B-13">
          <mxGeometry relative="1" as="geometry">
            <Array as="points">
              <mxPoint x="560" y="220" />
            </Array>
          </mxGeometry>
        </mxCell>
        <mxCell id="yYjo69xQFSQegKboXp3B-16" value="No" style="edgeLabel;html=1;align=center;verticalAlign=middle;resizable=0;points=[];" vertex="1" connectable="0" parent="yYjo69xQFSQegKboXp3B-14">
          <mxGeometry x="-0.1636" y="2" relative="1" as="geometry">
            <mxPoint x="41" y="-32" as="offset" />
          </mxGeometry>
        </mxCell>
        <mxCell id="yYjo69xQFSQegKboXp3B-18" value="" style="edgeStyle=orthogonalEdgeStyle;rounded=0;orthogonalLoop=1;jettySize=auto;html=1;" edge="1" parent="1" source="yYjo69xQFSQegKboXp3B-10" target="yYjo69xQFSQegKboXp3B-17">
          <mxGeometry relative="1" as="geometry" />
        </mxCell>
        <mxCell id="yYjo69xQFSQegKboXp3B-19" value="Yes" style="edgeLabel;html=1;align=center;verticalAlign=middle;resizable=0;points=[];" vertex="1" connectable="0" parent="yYjo69xQFSQegKboXp3B-18">
          <mxGeometry x="-0.25" y="-2" relative="1" as="geometry">
            <mxPoint y="-12" as="offset" />
          </mxGeometry>
        </mxCell>
        <mxCell id="yYjo69xQFSQegKboXp3B-10" value="Converged" style="rhombus;whiteSpace=wrap;html=1;rounded=1;" vertex="1" parent="1">
          <mxGeometry x="520" y="107.5" width="80" height="65" as="geometry" />
        </mxCell>
        <mxCell id="yYjo69xQFSQegKboXp3B-15" style="edgeStyle=orthogonalEdgeStyle;rounded=0;orthogonalLoop=1;jettySize=auto;html=1;entryX=0.5;entryY=1;entryDx=0;entryDy=0;" edge="1" parent="1" source="yYjo69xQFSQegKboXp3B-13" target="yYjo69xQFSQegKboXp3B-2">
          <mxGeometry relative="1" as="geometry" />
        </mxCell>
        <mxCell id="yYjo69xQFSQegKboXp3B-13" value="Update Properties" style="rounded=1;whiteSpace=wrap;html=1;" vertex="1" parent="1">
          <mxGeometry x="340" y="200" width="80" height="40" as="geometry" />
        </mxCell>
        <mxCell id="yYjo69xQFSQegKboXp3B-17" value="Post Process" style="whiteSpace=wrap;html=1;rounded=1;" vertex="1" parent="1">
          <mxGeometry x="640" y="120" width="60" height="40" as="geometry" />
        </mxCell>
      </root>
    </mxGraphModel>
  </diagram>
</mxfile>
